<?xml version="1.0" encoding="UTF-8"?>
<svg width="100" height="100" viewBox="0 0 100 100" fill="none" xmlns="http://www.w3.org/2000/svg">
  <path d="M73.517 50.001c-.036-4.719 1.927-8.269 5.897-10.931-2.227-3.26-5.576-5.052-9.973-5.396-4.182-.332-8.752 2.492-10.451 2.492-1.806 0-5.892-2.372-9.067-2.372-5.897.036-11.338 3.439-14.346 8.731-6.157 10.695-1.576 26.479 4.329 35.138 2.947 4.239 6.397 8.982 10.931 8.814 4.401-.179 6.049-2.827 11.338-2.827 5.241 0 6.769 2.827 11.338 2.719 4.69-.072 7.643-4.239 10.463-8.515 3.367-4.838 4.724-9.568 4.784-9.808-.108-.036-9.139-3.499-9.235-13.93l-.008-.115zM64.57 15.001c2.419-2.947 4.042-7.023 3.594-11.124-3.475.144-7.678 2.323-10.156 5.241-2.227 2.587-4.174 6.733-3.654 10.703 3.87.299 7.845-1.972 10.216-4.82z" fill="currentColor"/>
</svg>
