<?xml version="1.0" encoding="UTF-8"?>
<svg width="100" height="100" viewBox="0 0 100 100" fill="none" xmlns="http://www.w3.org/2000/svg">
  <path d="M28.812 51.345c-3.682 4.317-6.83 8.967-9.306 13.87-.947 1.872-1.816 3.782-2.604 5.73-.788 1.946-1.495 3.93-2.118 5.95-.623 2.018-1.163 4.073-1.617 6.163-.455 2.09-.825 4.217-1.108 6.379-.284 2.162-.482 4.36-.593 6.593-.11 2.234-.134 4.504-.072 6.81.063 2.306.213 4.648.45 7.026h10.714c-.213-2.27-.34-4.504-.379-6.702-.04-2.198.006-4.36.137-6.486.13-2.126.345-4.217.647-6.27.302-2.054.69-4.073 1.162-6.055.473-1.982 1.02-3.93 1.642-5.842.623-1.91 1.32-3.783 2.094-5.62.773-1.835 1.62-3.633 2.54-5.394.92-1.76 1.914-3.484 2.983-5.17 3.157-4.976 6.83-9.664 11.017-14.075 4.187-4.41 8.89-8.534 14.11-12.37 5.218-3.835 10.95-7.385 17.194-10.65 6.244-3.264 12.999-6.244 20.264-8.939-7.55 2.27-14.647 4.94-21.293 8.007-6.645 3.068-12.84 6.45-18.587 10.146-5.746 3.695-11.041 7.7-15.885 12.013-4.843 4.314-9.245 8.915-13.204 13.804l.912-.918z" fill="currentColor"/>
</svg>
