<?xml version="1.0" encoding="UTF-8"?>
<svg width="100" height="100" viewBox="0 0 100 100" fill="none" xmlns="http://www.w3.org/2000/svg">
  <path d="M50 0C22.4 0 0 22.4 0 50s22.4 50 50 50 50-22.4 50-50S77.6 0 50 0zm22.9 72.1c-.9 1.5-2.8 2-4.3 1.1-11.8-7.2-26.6-8.8-44.1-4.8-1.7.4-3.4-.7-3.7-2.4-.4-1.7.7-3.4 2.4-3.7 19.1-4.4 35.5-2.5 48.6 5.5 1.5.9 2 2.8 1.1 4.3zm6.1-13.6c-1.1 1.8-3.5 2.4-5.3 1.3-13.5-8.3-34-10.7-49.9-5.9-2.1.6-4.2-.6-4.8-2.7-.6-2.1.6-4.2 2.7-4.8 18.2-5.5 40.8-2.8 56.1 6.8 1.7 1.1 2.3 3.5 1.2 5.3zm.5-14.1c-16.2-9.6-42.9-10.5-58.3-5.8-2.5.7-5.1-.7-5.8-3.2-.7-2.5.7-5.1 3.2-5.8 17.7-5.4 47.2-4.3 65.8 6.7 2.2 1.3 3 4.2 1.7 6.4-1.3 2.3-4.2 3-6.6 1.7z" fill="currentColor"/>
</svg>
