<svg width="300" height="125" viewBox="0 0 300 125" fill="none" xmlns="http://www.w3.org/2000/svg">
<path fill-rule="evenodd" clip-rule="evenodd" d="M169.172 76.0393C159.937 82.8586 146.508 86.5 134.962 86.5C118.772 86.5 104.196 80.5133 93.1693 70.5525C92.3032 69.7692 93.0786 68.7024 94.1183 69.3106C106.019 76.2367 120.732 80.4003 135.93 80.4003C146.18 80.4003 157.456 78.2795 167.825 73.8786C169.392 73.2131 170.7 74.904 169.169 76.0408M173.019 71.64C171.84 70.1274 165.217 70.9267 162.22 71.2802C161.313 71.3916 161.174 70.6003 161.991 70.0319C167.277 66.3093 175.955 67.3841 176.969 68.6308C177.983 69.8774 176.706 78.582 171.737 82.7345C170.973 83.3713 170.247 83.0322 170.586 82.1867C171.7 79.4004 174.203 73.1574 173.019 71.64Z" fill="white"/>
<path fill-rule="evenodd" clip-rule="evenodd" d="M162.429 43.7558V40.1384C162.426 40.0173 162.447 39.8967 162.492 39.7842C162.537 39.6716 162.604 39.5694 162.69 39.4837C162.775 39.398 162.878 39.3307 162.99 39.2858C163.103 39.241 163.223 39.2196 163.344 39.2229H179.54C180.059 39.2229 180.476 39.597 180.476 40.1384V43.2352C180.47 43.7543 180.031 44.4341 179.257 45.5089L170.866 57.4917C173.987 57.4153 177.276 57.8802 180.104 59.474C180.741 59.8339 180.9 60.3609 180.964 60.8815V64.7426C180.964 65.268 180.381 65.8858 179.769 65.5674C174.786 62.9562 168.167 62.6696 162.658 65.5944C162.096 65.9001 161.507 65.2887 161.507 64.7633V61.0965C161.507 60.5074 161.513 59.5043 162.102 58.6079L171.826 44.6634H163.379C162.86 44.6634 162.443 44.2972 162.443 43.7558M103.344 66.33H98.4172C97.9459 66.295 97.5733 65.9415 97.5367 65.4909V40.2005C97.5367 39.6941 97.9602 39.2929 98.4857 39.2929H103.081C103.559 39.3136 103.941 39.6814 103.976 40.1368V43.4422H104.067C105.266 40.2466 107.519 38.7563 110.553 38.7563C113.638 38.7563 115.564 40.2466 116.951 43.4422C118.145 40.2466 120.852 38.7563 123.758 38.7563C125.823 38.7563 128.082 39.6082 129.461 41.522C131.021 43.6492 130.703 46.7412 130.703 49.4511L130.692 65.4145C130.692 65.9208 130.268 66.33 129.743 66.33H124.807C124.329 66.295 123.92 65.9001 123.92 65.4145V51.9923C123.92 50.9255 124.015 48.2634 123.781 47.2523C123.415 45.555 122.312 45.0758 120.884 45.0758C119.689 45.0758 118.444 45.8719 117.938 47.1488C117.432 48.4258 117.481 50.5593 117.481 51.9939V65.4002C117.481 65.9065 117.058 66.3157 116.532 66.3157H111.596C111.098 66.2807 110.709 65.8858 110.709 65.4002L110.703 51.9939C110.703 49.1725 111.168 45.0201 107.667 45.0201C104.126 45.0201 104.264 49.0674 104.264 51.9939V65.4002C104.264 65.9065 103.841 66.3157 103.315 66.3157M194.421 38.777C201.732 38.777 205.69 45.0567 205.69 53.04C205.69 60.7542 201.317 66.873 194.421 66.873C187.256 66.873 183.331 60.5933 183.331 52.7693C183.331 44.8959 187.289 38.7579 194.421 38.7579M194.462 43.9214C190.832 43.9214 190.601 48.87 190.601 51.9541C190.601 55.0382 190.553 61.6426 194.419 61.6426C198.237 61.6426 198.419 56.3199 198.419 53.0766C198.419 50.943 198.328 48.3907 197.686 46.3671C197.132 44.6061 196.031 43.9198 194.464 43.9198M215.174 66.33H210.266C209.789 66.295 209.38 65.9001 209.38 65.4145L209.373 40.1177C209.415 39.6528 209.824 39.2929 210.322 39.2929H214.892C215.322 39.3136 215.675 39.605 215.772 39.9999V43.8689H215.863C217.242 40.4106 219.175 38.7611 222.579 38.7611C224.808 38.7611 226.945 39.5572 228.332 41.7417C229.605 43.7638 229.605 47.1679 229.605 49.6151V65.5371C229.55 65.9829 229.14 66.3332 228.656 66.3332H223.724C223.273 66.2982 222.899 65.967 222.851 65.5371V51.8012C222.851 49.0356 223.17 44.9866 219.767 44.9866C218.568 44.9866 217.466 45.7907 216.901 47.0087C216.209 48.5531 216.118 50.0928 216.118 51.798V65.4177C216.111 65.924 215.682 66.3332 215.154 66.3332M149.516 54.2325C149.516 56.1527 149.564 57.7353 148.593 59.4581C147.809 60.8433 146.563 61.6967 145.182 61.6967C143.291 61.6967 142.181 60.2558 142.181 58.127C142.181 53.9268 145.945 53.1641 149.513 53.1641V54.2309M154.481 66.2425C154.154 66.5338 153.684 66.5545 153.318 66.3603C151.683 65.0021 151.385 64.37 150.491 63.0756C147.787 65.8333 145.868 66.658 142.367 66.658C138.216 66.658 134.992 64.101 134.992 58.9789C134.992 54.9793 137.154 52.2566 140.246 50.9255C142.921 49.7473 146.657 49.5403 149.513 49.2139V48.577C149.513 47.4052 149.604 46.02 148.908 45.0073C148.312 44.0998 147.161 43.7256 146.142 43.7256C144.263 43.7256 142.592 44.6889 142.184 46.6871C142.101 47.1329 141.775 47.5676 141.324 47.5883L136.548 47.0756C136.146 46.9848 135.696 46.6616 135.815 46.0407C136.911 40.245 142.152 38.5 146.833 38.5C149.231 38.5 152.365 39.1369 154.256 40.952C156.654 43.1906 156.425 46.1776 156.425 49.4288V57.108C156.425 59.4167 157.38 60.4278 158.283 61.6776C158.595 62.1234 158.665 62.6552 158.262 62.988L154.495 66.2743L154.489 66.2584M84.9154 54.2484C84.9154 56.1686 84.9631 57.7513 83.9919 59.474C83.2085 60.8592 81.9698 61.7127 80.5814 61.7127C78.6899 61.7127 77.5881 60.2717 77.5881 58.1429C77.5881 53.9427 81.352 53.1801 84.9122 53.1801V54.2468M89.8798 66.2584C89.5534 66.5498 89.0837 66.5705 88.7175 66.3762C87.0823 65.0181 86.8069 64.386 85.8898 63.0915C83.1862 65.8492 81.2724 66.6739 77.7664 66.6739C73.6235 66.6755 70.3945 64.1185 70.3945 58.998C70.3945 54.9984 72.5631 52.2757 75.6488 50.9446C78.3237 49.7664 82.059 49.5594 84.9154 49.233V48.5961C84.9154 47.4243 85.0061 46.0391 84.3199 45.0264C83.7148 44.1189 82.5685 43.7447 81.5542 43.7447C79.6754 43.7447 77.9989 44.708 77.5737 46.7062C77.4909 47.152 77.1645 47.5867 76.7219 47.6074L71.939 47.0947C71.5377 47.0039 71.0951 46.6807 71.2065 46.0598C72.3083 40.2642 77.5435 38.5191 82.2246 38.5191C84.6224 38.5191 87.7558 39.156 89.6474 40.9711C92.0452 43.2097 91.816 46.1967 91.816 49.448V57.1271C91.816 59.4358 92.7713 60.4469 93.674 61.6967C93.9925 62.1426 94.0625 62.6743 93.6581 63.0071L89.9005 66.2743L89.8846 66.2584" fill="white"/>
</svg>
