<svg width="300" height="125" viewBox="0 0 300 125" fill="none" xmlns="http://www.w3.org/2000/svg">
<path d="M128.708 92.9693H86V89.2158H128.708V92.9693ZM86.7906 92.1801H127.919V90.0091H86.7906V92.1801Z" fill="white"/>
<path d="M125.087 87.0231H89.6211V83.2725H125.087V87.0231ZM90.4062 86.234H124.292V84.0616H90.4062V86.234Z" fill="white"/>
<path d="M126.844 89.9833H87.8643V86.2339H126.844V89.9833ZM88.6535 89.194H126.055V87.0231H88.6549L88.6535 89.194Z" fill="white"/>
<path d="M96.7935 51.8204H89.6211V51.0312H96.7935V51.8204Z" fill="white"/>
<path d="M125.087 51.8204H117.915V51.0312H125.087V51.8204Z" fill="white"/>
<path d="M125.087 53.6626H117.915V54.4518H125.087V53.6626Z" fill="white"/>
<path d="M125.087 80.6396H117.915V81.4288H125.087V80.6396Z" fill="white"/>
<path d="M124.165 81.4333H118.771V53.6641H124.165V81.4333ZM119.56 80.6427H123.376V54.4532H119.56V80.6427Z" fill="white"/>
<path d="M119.56 58.5422H118.771C118.771 57.4827 120.107 56.5965 121.4 55.7404C122.281 55.1588 123.376 54.4323 123.376 53.9927H124.165C124.165 54.857 123.087 55.5711 121.836 56.3999C120.821 57.0703 119.56 57.9073 119.56 58.5422Z" fill="white"/>
<path d="M119.56 63.0415H118.771C118.771 61.982 120.107 61.0958 121.4 60.2397C122.281 59.6567 123.376 58.9317 123.376 58.4907H124.165C124.165 59.3564 123.087 60.0705 121.836 60.8979C120.821 61.5697 119.56 62.4052 119.56 63.0415Z" fill="white"/>
<path d="M119.56 67.5401H118.771C118.771 66.4792 120.107 65.5945 121.4 64.7384C122.281 64.1553 123.376 63.4303 123.376 62.9893H124.165C124.165 63.8536 123.087 64.569 121.836 65.3964C120.821 66.0682 119.56 66.9039 119.56 67.5401Z" fill="white"/>
<path d="M119.56 72.0377H118.771C118.771 70.9782 120.107 70.092 121.4 69.2359C122.281 68.6543 123.376 67.9279 123.376 67.4883H124.165C124.165 68.3525 123.087 69.0666 121.836 69.8954C120.821 70.5658 119.56 71.4028 119.56 72.0377Z" fill="white"/>
<path d="M119.56 76.5367H118.771C118.771 75.4771 120.107 74.591 121.4 73.7349C122.281 73.1519 123.376 72.4269 123.376 71.9858H124.165C124.165 72.8515 123.087 73.5656 121.836 74.393C120.821 75.0648 119.56 75.9004 119.56 76.5367Z" fill="white"/>
<path d="M119.56 81.0357H118.771C118.771 79.9748 120.107 79.0901 121.4 78.234C122.281 77.651 123.376 76.9259 123.376 76.4849H124.165C124.165 77.3492 123.087 78.0647 121.836 78.8921C120.821 79.5639 119.56 80.3995 119.56 81.0357Z" fill="white"/>
<path d="M96.7934 53.6626H89.6211V54.4518H96.7934V53.6626Z" fill="white"/>
<path d="M96.7934 80.6396H89.6211V81.4288H96.7934V80.6396Z" fill="white"/>
<path d="M90.543 53.6641H95.939V81.4333H90.543V53.6641ZM95.1484 54.4532H91.3323V80.64H95.1484V54.4532Z" fill="white"/>
<path d="M95.1484 58.5422H95.939C95.939 57.4827 94.601 56.5965 93.3079 55.7404C92.4286 55.1588 91.3323 54.4323 91.3323 53.9927H90.543C90.543 54.857 91.623 55.5711 92.8723 56.3999C93.8868 57.0703 95.1484 57.9073 95.1484 58.5422Z" fill="white"/>
<path d="M95.1484 63.0415H95.939C95.939 61.982 94.601 61.0958 93.3079 60.2397C92.4286 59.6567 91.3323 58.9317 91.3323 58.4907H90.543C90.543 59.3564 91.623 60.0705 92.8723 60.8979C93.8868 61.5697 95.1484 62.4052 95.1484 63.0415Z" fill="white"/>
<path d="M95.1484 67.5401H95.939C95.939 66.4792 94.601 65.5945 93.3079 64.7384C92.4286 64.1553 91.3323 63.4303 91.3323 62.9893H90.543C90.543 63.8536 91.623 64.569 92.8723 65.3964C93.8868 66.0682 95.1484 66.9039 95.1484 67.5401Z" fill="white"/>
<path d="M95.1484 72.0377H95.939C95.939 70.9782 94.601 70.092 93.3079 69.2359C92.4286 68.6543 91.3323 67.9279 91.3323 67.4883H90.543C90.543 68.3525 91.623 69.0666 92.8723 69.8954C93.8868 70.5658 95.1484 71.4028 95.1484 72.0377Z" fill="white"/>
<path d="M95.1484 76.5367H95.939C95.939 75.4771 94.601 74.591 93.3079 73.7349C92.4286 73.1519 91.3323 72.4269 91.3323 71.9858H90.543C90.543 72.8515 91.623 73.5656 92.8723 74.393C93.8868 75.0648 95.1484 75.9004 95.1484 76.5367Z" fill="white"/>
<path d="M95.1484 81.0357H95.939C95.939 79.9748 94.601 79.0901 93.3079 78.234C92.4286 77.651 91.3323 76.9259 91.3323 76.4849H90.543C90.543 77.3492 91.623 78.0647 92.8723 78.8921C93.8868 79.5639 95.1484 80.3995 95.1484 81.0357Z" fill="white"/>
<path d="M107.383 45.7568L98.1299 61.1598L107.325 66.5858L116.578 61.1611L107.383 45.7568ZM115.051 60.1439L107.748 56.8451L107.774 47.951L115.051 60.1439ZM106.957 56.867L99.6605 60.1507L106.983 47.9619L106.957 56.867ZM99.5308 61.0751L106.956 57.734L106.933 65.443L99.5308 61.0751ZM107.745 57.7162L115.177 61.0724L107.722 65.4416L107.745 57.7162Z" fill="white"/>
<path d="M107.326 68.0005L98.1152 62.3532L107.325 76.2693L116.622 62.3423L107.326 68.0005ZM107.749 68.6681L113.982 64.871L107.749 74.2103V68.6681ZM106.96 68.7023V74.2867L100.739 64.8888L106.96 68.7023Z" fill="white"/>
<path d="M107.36 41.4272C106.243 41.4261 105.172 40.9818 104.382 40.1919C103.592 39.4019 103.148 38.3308 103.147 37.2136C103.148 36.0965 103.592 35.0253 104.382 34.2354C105.172 33.4454 106.243 33.0011 107.36 33C108.477 33.0014 109.548 33.4459 110.338 34.2358C111.128 35.0257 111.572 36.0966 111.574 37.2136C111.572 38.3307 111.128 39.4016 110.338 40.1915C109.548 40.9814 108.477 41.4258 107.36 41.4272ZM107.36 33.7564C106.444 33.7575 105.565 34.1221 104.917 34.7702C104.269 35.4183 103.904 36.2971 103.903 37.2136C103.904 38.1302 104.269 39.0089 104.917 39.657C105.565 40.3051 106.444 40.6697 107.36 40.6708C108.277 40.6697 109.155 40.3051 109.803 39.6569C110.451 39.0088 110.815 38.1301 110.816 37.2136C110.814 36.2979 110.449 35.4202 109.802 34.7729C109.154 34.1257 108.276 33.7616 107.36 33.7606V33.7564Z" fill="white"/>
<path d="M107.36 39.808C106.672 39.808 106.012 39.5347 105.526 39.0482C105.039 38.5617 104.766 37.9018 104.766 37.2138C104.766 36.5258 105.039 35.8659 105.526 35.3794C106.012 34.8929 106.672 34.6196 107.36 34.6196C108.048 34.6196 108.708 34.8929 109.194 35.3794C109.681 35.8659 109.954 36.5258 109.954 37.2138C109.954 37.9018 109.681 38.5617 109.194 39.0482C108.708 39.5347 108.048 39.808 107.36 39.808ZM107.36 35.4388C106.889 35.4388 106.438 35.6258 106.105 35.9587C105.772 36.2916 105.585 36.743 105.585 37.2138C105.585 37.6846 105.772 38.136 106.105 38.4689C106.438 38.8018 106.889 38.9888 107.36 38.9888C107.831 38.9888 108.282 38.8018 108.615 38.4689C108.948 38.136 109.135 37.6846 109.135 37.2138C109.134 36.7435 108.947 36.2927 108.614 35.9604C108.282 35.6281 107.83 35.4415 107.36 35.4415V35.4388Z" fill="white"/>
<path d="M107.355 37.9481C107.759 37.9481 108.087 37.6204 108.087 37.2162C108.087 36.8121 107.759 36.4844 107.355 36.4844C106.95 36.4844 106.623 36.8121 106.623 37.2162C106.623 37.6204 106.95 37.9481 107.355 37.9481Z" fill="white"/>
<path d="M119.239 39.5391C116.966 37.2543 114.08 35.6761 110.929 34.9951C111.107 35.2809 111.251 35.5871 111.355 35.9072C114.13 36.6191 116.661 38.0668 118.681 40.0975C121.599 42.9987 123.279 46.9178 123.368 51.0315H119.748C119.662 48.4261 118.759 45.9137 117.166 43.8499C115.574 41.7862 113.372 40.2757 110.873 39.5323C110.715 39.7729 110.532 39.9966 110.327 40.1999C112.802 40.8592 114.99 42.3168 116.552 44.3466C118.114 46.3764 118.963 48.8649 118.966 51.4262V51.8208H124.164V51.4262C124.17 49.2176 123.738 47.0297 122.892 44.9893C122.047 42.9489 120.805 41.0964 119.239 39.5391Z" fill="white"/>
<path d="M103.836 39.5323C101.338 40.2757 99.136 41.7862 97.5432 43.8499C95.9504 45.9137 95.0472 48.4261 94.9612 51.0315H91.3415C91.4314 46.9179 93.1114 42.999 96.0289 40.0975C98.0491 38.067 100.58 36.6194 103.354 35.9072C103.459 35.587 103.603 35.2808 103.782 34.9951C100.631 35.6761 97.7443 37.2542 95.4704 39.5391C93.9046 41.0965 92.6632 42.9491 91.818 44.9895C90.9729 47.0299 90.5409 49.2177 90.5469 51.4262V51.8208H95.7448V51.4262C95.7484 48.8648 96.5973 46.3763 98.1595 44.3465C99.7217 42.3167 101.91 40.8591 104.385 40.1999C104.18 39.9968 103.996 39.7731 103.836 39.5323Z" fill="white"/>
<path d="M104.247 35.7036C103.947 35.7627 103.648 35.8305 103.35 35.907C103.211 36.3301 103.141 36.7725 103.141 37.2178C103.14 38.0408 103.382 38.846 103.836 39.5322C104.094 39.4557 104.354 39.3874 104.618 39.3273C104.151 38.7234 103.897 37.9814 103.898 37.2178C103.897 36.6929 104.016 36.1749 104.247 35.7036Z" fill="white"/>
<path d="M107.36 33.7608C107.818 33.7612 108.271 33.8527 108.693 34.0299C109.115 34.2071 109.497 34.4665 109.818 34.7931C110.193 34.8477 110.566 34.9159 110.935 34.9951C110.557 34.3865 110.03 33.8843 109.404 33.5359C108.778 33.1876 108.074 33.0046 107.358 33.0044C106.641 33.0045 105.937 33.1874 105.311 33.5357C104.685 33.8841 104.158 34.3864 103.78 34.9951C104.149 34.9159 104.522 34.8477 104.897 34.7931C105.218 34.4657 105.602 34.2057 106.025 34.0285C106.447 33.8512 106.902 33.7602 107.36 33.7608Z" fill="white"/>
<path d="M107.36 40.6749C106.622 40.6732 105.904 40.4338 105.312 39.9922C104.999 40.0477 104.691 40.1151 104.389 40.1943C104.78 40.5844 105.243 40.8937 105.754 41.1046C106.264 41.3154 106.811 41.4237 107.363 41.4231C107.915 41.4237 108.462 41.3154 108.972 41.1046C109.482 40.8937 109.946 40.5844 110.337 40.1943C110.034 40.1151 109.725 40.0482 109.414 39.9922C108.821 40.4349 108.1 40.6744 107.36 40.6749Z" fill="white"/>
<path d="M110.81 37.2178C110.811 37.9815 110.558 38.7238 110.09 39.3273C110.354 39.3874 110.616 39.4557 110.873 39.5322C111.327 38.8457 111.569 38.0407 111.568 37.2178C111.568 36.7725 111.497 36.33 111.358 35.907C111.062 35.8305 110.763 35.7627 110.461 35.7036C110.692 36.1749 110.811 36.6929 110.81 37.2178Z" fill="white"/>
<path d="M157.119 61.3777L157.281 53.9805C155.101 57.0526 149.368 60.3267 145.008 60.8118V41.4094C145.492 41.4094 146.421 41.5307 147.027 41.7732C149.126 42.5816 150.821 44.5623 154.051 48.0385H154.092V41.9349H150.66C146.058 41.9349 144.846 39.6713 144.846 37.3672C144.846 35.1036 146.259 33.5676 148.399 33.5676C152.033 33.5676 154.455 36.6396 155.989 39.7925H156.07L155.787 33.0825H136.651C137.701 34.4569 138.508 37.2055 138.508 41.4498V53.0104C138.508 57.2547 137.701 60.0034 136.651 61.3777H157.119Z" fill="white"/>
<path d="M160.195 39.9542C161.851 37.1651 164.882 34.0526 166.699 33.7293C168.153 33.4867 169.434 34.1335 169.434 36.4779V53.0104C169.434 57.2547 168.627 60.0034 167.577 61.3777H177.751C176.701 60.0034 175.894 57.2547 175.894 53.0104V36.4779C175.894 34.0931 177.832 33.4867 179.245 33.7293C180.739 33.9718 183.72 36.4375 185.819 39.9542H185.9L185.133 33.0825H160.882L160.115 39.9542H160.195Z" fill="white"/>
<path d="M212.545 41.4498C212.545 37.2055 213.352 34.4569 214.402 33.0825H204.228C205.278 34.4569 206.085 37.2055 206.085 41.4498V44.5623H196.961V41.4498C196.961 37.2055 197.769 34.4569 198.818 33.0825H188.645C189.694 34.4569 190.502 37.2055 190.502 41.4498V53.0104C190.502 57.2547 189.694 60.0034 188.645 61.3777H198.818C197.769 60.0034 196.961 57.2547 196.961 53.0104V45.1282H206.085V53.0104C206.085 57.2547 205.278 60.0034 204.228 61.3777H214.402C213.352 60.0034 212.545 57.2547 212.545 53.0104V41.4498Z" fill="white"/>
<path d="M149.226 92.6765C155.604 92.6765 160.691 88.1089 160.691 82.7328C160.691 77.3971 156.533 75.0527 152.778 74.3655C155.241 72.9507 157.34 71.6977 157.34 69.1107C157.34 65.4323 153.505 64.3813 148.539 64.3813H136.509C137.558 65.7557 138.366 68.5044 138.366 72.7486V84.3092C138.366 88.5535 137.558 91.3022 136.509 92.6765H149.226ZM139.94 89.6449C141.394 82.6519 142.968 75.659 144.3 68.6256C144.825 65.877 145.835 64.9068 147.328 64.9068C149.993 64.9068 150.76 66.645 150.76 69.2724C150.76 72.0615 149.468 74.8506 146.682 78.246C144.866 80.4288 141.353 85.1985 139.94 89.6449ZM144.744 85.0368C144.987 82.0861 145.915 79.9033 147.57 77.963C148.943 76.5887 150.558 75.5782 152.173 74.7293C153.384 76.0228 154.07 78.8119 154.07 81.9648C154.07 86.4516 152.536 92.151 148.741 92.151C147.449 92.151 146.4 91.4235 145.673 90.2108C144.906 88.8769 144.583 87.058 144.744 85.0368Z" fill="white"/>
<path d="M161.702 78.529C161.702 87.1389 168.605 93 177.245 93C184.835 93 188.872 87.7048 190.487 83.2988L190.325 83.218C188.347 87.7856 183.946 88.6749 181.686 88.6749C174.096 88.6749 167.919 82.8946 167.919 74.4869C167.919 69.0299 170.583 64.9069 175.67 64.9069C181.847 64.9069 186.894 71.6978 188.71 77.5589H188.791V67.1705C185.844 65.3516 181.968 64.0581 177.77 64.0581C168.767 64.0581 161.702 69.9596 161.702 78.529Z" fill="white"/>
<path d="M197.573 92.6765C195.999 90.8171 193.9 86.2091 193.9 79.2161V69.1511C199.673 78.0035 206.899 88.6344 208.716 92.6765H211.784V77.8419C211.784 70.8489 213.44 66.2407 214.651 64.3813H208.353C209.564 66.2407 211.219 70.8489 211.219 77.8419V83.5008L198.744 64.3813H190.872L193.334 68.2618V79.2161C193.334 86.2091 191.921 90.8171 190.872 92.6765H197.573Z" fill="white"/>
</svg>
