<svg width="300" height="125" viewBox="0 0 300 125" fill="none" xmlns="http://www.w3.org/2000/svg">
<path fill-rule="evenodd" clip-rule="evenodd" d="M169.406 53.0347C166.592 53.0347 164.333 53.7871 161.988 54.9158C162.005 48.3662 162.092 42.6546 162.248 40.5L148.575 43.0992V44.3134L149.913 44.4845C151.824 44.7411 152.554 45.8355 152.78 48.3493C153.214 53.1545 153.145 78.9082 152.78 83.0293C156.463 83.8501 160.441 84.4658 164.437 84.4658C175.278 84.4658 181.811 77.865 181.811 67.4164C181.811 59.054 176.512 53.0347 169.406 53.0347ZM164.646 82.3452C163.864 82.3452 162.874 82.2256 162.318 82.1229C162.109 79.2329 161.97 67.3137 161.988 56.8993C163.238 56.4889 164.09 56.3864 165.184 56.3864C169.667 56.3864 172.203 61.4823 172.203 67.9294C172.203 76.1207 169.093 82.3452 164.646 82.3452ZM97.1844 53.3596L95.0474 53.941C93.1885 47.8189 90.2176 44.3647 84.6928 44.3647H77.6048C77.2747 48.2637 77.1531 54.7618 77.1879 61.5166L81.9656 61.3627C85.1449 61.2601 86.4652 58.9345 87.2297 55.4972H89.0191V69.8103H87.2297C86.4652 66.3731 85.1275 64.0645 81.9656 63.9448L77.2051 63.7909C77.2572 68.9211 77.3962 73.2989 77.622 75.8981C77.9521 79.7117 78.9946 81.3875 81.7395 81.7807L84.1719 82.0373V83.7474H61.0479V82.0373L62.959 81.7807C65.704 81.3874 66.7464 79.7116 67.0764 75.8981C67.5976 69.6222 67.6845 56.5572 67.0764 49.2724C66.7463 45.4588 65.7039 43.783 62.959 43.3898L61.0479 43.1333V41.4232H96.9933L97.1844 53.3596ZM108.686 52.6926C118.902 52.6926 123.975 59.5158 123.975 68.4936C123.975 77.2662 118.241 84.4656 108.026 84.4656C97.8098 84.4656 92.7194 77.6425 92.7194 68.6647C92.7194 59.8921 98.4528 52.6926 108.686 52.6926ZM108.147 54.6422C103.63 54.6422 102.362 60.6616 102.362 68.5792C102.362 76.2916 104.36 82.5162 108.547 82.5162C113.064 82.5162 114.332 76.4969 114.332 68.5792C114.332 60.8667 112.335 54.6422 108.147 54.6422ZM184.312 68.8699C184.295 60.5418 189.646 52.7268 200.174 52.7268C208.739 52.7268 212.839 58.9857 212.874 67.1598H193.763C193.555 74.5814 197.377 80.0367 204.674 80.0367C207.888 80.0367 209.625 79.2502 211.571 77.7965L212.475 78.8568C210.355 81.7468 205.925 84.5 200.053 84.5C190.827 84.4828 184.33 78.053 184.312 68.8699ZM193.833 65.0394L203.423 64.8343C203.475 60.6616 202.797 54.6935 199.34 54.6935C195.866 54.6935 193.92 60.3367 193.833 65.0394ZM237.44 62.0639L235.877 62.4743C234.209 57.156 231.672 54.8987 227.972 54.8987C225.505 54.8987 223.715 56.7284 223.715 59.3791C223.715 62.0127 225.713 63.3977 231.499 65.6037C236.832 67.6387 238.952 69.9815 238.952 74.2395C238.952 80.6009 234 84.4999 225.869 84.4999C221.961 84.4999 217.617 83.6449 215.081 82.6359L214.803 73.8461L216.366 73.4358C218.607 79.592 221.526 81.8322 225.366 81.8322C228.632 81.8322 230.456 79.5407 230.456 77.0954C230.456 74.7183 229.084 73.299 223.872 71.4521C219.024 69.7421 215.515 67.6558 215.515 62.3204C215.515 57.139 220.171 52.7098 227.867 52.7098C231.446 52.7098 234.834 53.3255 237.11 54.3515L237.44 62.0639ZM147.307 61.8245C143.172 59.0883 138.707 60.2854 137.786 61.7732C137.474 66.6982 137.543 74.2395 137.891 78.0359C138.116 80.5497 138.846 81.6441 140.757 81.9007L143.224 82.0717V83.7818H124.253V82.0717L125.59 81.9007C127.502 81.6441 128.231 80.5497 128.457 78.0359C128.822 73.9145 128.891 65.33 128.457 60.5248C128.231 58.011 127.502 56.9166 125.59 56.66L124.253 56.489V55.2748L137.873 52.6755L137.717 59.6868C140.896 52.4703 147.186 51.5298 150.643 53.5477L147.307 61.8245Z" fill="white"/>
</svg>
