<svg width="300" height="125" viewBox="0 0 300 125" fill="none" xmlns="http://www.w3.org/2000/svg">
<path d="M58.8624 44V68.3814H54.904V44H43V72.4597H46.9584V48.0782H50.9168V72.4597H62.8495V48.0782H66.8079V72.4597H70.795V44H58.8624Z" fill="white"/>
<path d="M106.507 56.1759H118.411V60.2248H106.507V72.4009H122.398V52.0977H106.507V56.1759ZM118.44 68.3813H110.494V64.3324H118.411V68.3813H118.44Z" fill="white"/>
<path d="M98.5609 56.2052H102.548V52.1269H98.5609V47.4326H94.6025V72.4595H102.548V68.3812H98.5609V56.2052Z" fill="white"/>
<path d="M126.385 72.4597H130.487V60.1956H143.682V56.2347H130.487V47.9315H144.542V44H126.385V72.4597Z" fill="white"/>
<path d="M154.869 51.7456C151.512 51.7456 148.96 53.1833 147.353 55.9999L147.124 56.4107L150.021 59.1099L150.336 58.3764C151.111 56.6747 152.861 55.5598 154.84 55.5598C157.45 55.5598 158.999 57.0268 158.999 59.462V60.6356C157.192 60.1368 155.614 59.8728 154.323 59.8728C149.677 59.8728 146.693 62.4547 146.693 66.4449C146.693 70.2004 149.591 72.8116 153.692 72.8116C155.844 72.8116 157.622 72.2542 159.056 71.1099V72.3715H162.986V59.7261C163.015 54.7383 159.974 51.7456 154.869 51.7456ZM153.865 69.1442C151.943 69.1442 150.709 68.1173 150.709 66.5622C150.709 64.127 153.061 63.7456 154.496 63.7456C155.844 63.7456 157.335 64.0097 159.028 64.5378V66.5036C157.794 68.1173 155.786 69.1442 153.865 69.1442Z" fill="white"/>
<path d="M181.918 66.4449C180.598 68.1466 178.906 69.0268 176.927 69.0268C173.083 69.0268 170.616 66.3862 170.616 62.308C170.616 60.3715 171.219 58.7578 172.366 57.5256C173.542 56.2346 175.005 55.5891 176.812 55.5891C178.676 55.5891 180.225 56.352 181.574 57.9657L181.946 58.4351L184.7 55.7358L184.356 55.3251C182.377 52.9486 179.824 51.7456 176.783 51.7456C173.944 51.7456 171.477 52.8019 169.469 54.885C167.49 56.9388 166.486 59.4327 166.486 62.3373C166.486 65.2713 167.461 67.7945 169.383 69.819C171.333 71.8434 173.771 72.8703 176.669 72.8703C179.91 72.8703 182.635 71.5794 184.757 68.9975L185.102 68.5574L182.262 65.9461L181.918 66.4449Z" fill="white"/>
<path d="M192.015 47.4912H187.999V66.2687C187.999 70.5524 189.949 72.5475 194.109 72.5475C194.826 72.5475 195.514 72.4888 195.944 72.4595L196.461 72.4301V68.704L194.367 68.7626C192.474 68.7626 191.986 68.1758 191.986 65.858V56.0878H196.432V52.2736H191.986V47.4912H192.015Z" fill="white"/>
<path d="M209.512 51.7456C206.615 51.7456 204.177 52.8019 202.226 54.8556C200.304 56.8801 199.329 59.4033 199.329 62.3373C199.329 65.2713 200.304 67.7945 202.226 69.819C204.177 71.8434 206.615 72.8703 209.512 72.8703C212.409 72.8703 214.876 71.8434 216.826 69.819C218.777 67.7652 219.752 65.242 219.752 62.3373C219.752 59.4033 218.748 56.8801 216.769 54.8556C214.847 52.7725 212.409 51.7456 209.512 51.7456ZM209.512 69.0268C207.762 69.0268 206.299 68.3813 205.152 67.149C204.005 65.8581 203.431 64.2444 203.431 62.308C203.431 60.3715 204.005 58.7578 205.152 57.5256C206.299 56.264 207.762 55.6185 209.512 55.6185C211.319 55.6185 212.753 56.2346 213.901 57.5549C215.048 58.7872 215.622 60.4009 215.622 62.3373C215.622 64.2444 215.048 65.8874 213.901 67.1784C212.753 68.4107 211.262 69.0268 209.512 69.0268Z" fill="white"/>
<path d="M233.377 51.9219C230.882 51.9219 229.189 52.4793 227.698 53.8583V52.1859H223.739V72.4304H227.755V63.7165C227.755 57.9072 229.275 55.8534 233.549 55.8534C233.75 55.8534 233.951 55.8534 234.094 55.8827L234.754 56.0294V52.0686L234.266 52.0099C234.008 51.9219 233.664 51.9219 233.377 51.9219Z" fill="white"/>
<path d="M253.198 52.2153L247.404 67.0906L241.495 52.2153H237.02L245.195 72.1077L242.069 80.0001H246.457L257.615 52.2153H253.198Z" fill="white"/>
<path d="M74.7529 52.127V72.4301H90.644V68.3813H78.7401V64.3323H90.644V52.1564H74.7529V52.127ZM86.6569 60.2542H78.7401V56.2052H86.6569V60.2542Z" fill="white"/>
</svg>
