<svg width="300" height="125" viewBox="0 0 300 125" fill="none" xmlns="http://www.w3.org/2000/svg">
<path d="M128.939 54.3638C130.114 55.0742 131.108 56.0509 131.741 57.3828C132.464 58.7147 132.826 60.313 132.826 62.089C132.826 63.8648 132.464 65.3744 131.651 66.7062C130.927 68.0383 129.843 69.0149 128.487 69.6365C127.131 70.3468 125.504 70.702 123.786 70.702C122.792 70.702 121.888 70.5245 120.984 70.1693C120.08 69.9029 119.266 69.3702 118.634 68.7486V77.9832H113.39V53.6534H117.91L118.362 55.6069C120.351 54.0086 122.521 53.2095 124.78 53.2095C126.317 53.2095 127.764 53.5646 128.939 54.3638ZM126.046 65.3744C126.95 64.5752 127.402 63.5097 127.402 62.1777C127.402 60.8458 126.95 59.7803 126.136 58.8923C125.323 58.0044 124.238 57.6492 123.063 57.6492C122.069 57.6492 121.165 57.8268 120.441 58.2708C119.718 58.626 119.176 59.2475 118.724 60.0467V64.0425C118.995 64.8416 119.537 65.4632 120.17 65.9071C120.893 66.3512 121.707 66.6176 122.701 66.6176C124.057 66.6176 125.142 66.1735 126.046 65.3744Z" fill="white"/>
<path d="M135.899 57.4697C136.713 56.2266 137.797 55.1611 139.244 54.4507C140.69 53.7404 142.317 53.2964 144.125 53.2964C145.933 53.2964 147.56 53.6516 149.007 54.4507C150.363 55.1611 151.447 56.2266 152.261 57.5585C153.074 58.8904 153.436 60.3112 153.436 61.9983C153.436 63.6854 153.074 65.1061 152.261 66.438C151.447 67.7699 150.453 68.8356 149.007 69.5458C147.651 70.2561 145.933 70.7002 144.125 70.7002C142.317 70.7002 140.69 70.3449 139.244 69.6347C137.797 68.9242 136.713 67.9476 135.899 66.6155C135.176 65.2836 134.724 63.7742 134.724 61.9983C134.724 60.3112 135.176 58.8016 135.899 57.4697ZM141.232 65.195C141.956 66.0828 142.95 66.438 144.125 66.438C145.3 66.438 146.295 65.9941 147.018 65.195C147.741 64.3957 148.103 63.2413 148.103 61.9983C148.103 60.6664 147.741 59.6008 147.018 58.8016C146.204 57.9137 145.3 57.4697 144.035 57.4697C142.859 57.4697 141.956 57.9137 141.142 58.7128C140.419 59.6008 140.057 60.6664 140.057 61.9983C140.057 63.2413 140.419 64.307 141.232 65.195Z" fill="white"/>
<path d="M161.934 41.0435V70.257H156.691V41.0435H161.934Z" fill="white"/>
<path d="M183.448 54.0962L172.781 78.0708H167.719L171.696 69.4577L164.103 54.0962H170.069L174.408 63.6859L178.747 54.0962H183.448Z" fill="white"/>
<path d="M203.515 54.0955V70.2563C203.515 71.7657 203.063 73.1864 202.159 74.4296C201.255 75.6726 200.08 76.6495 198.543 77.3597C197.007 78.0702 195.38 78.4252 193.572 78.4252C192.216 78.4252 191.04 78.2477 190.046 77.9813C189.052 77.6261 188.238 77.2711 187.605 76.9158C186.882 76.4718 186.159 75.939 185.345 75.2287L188.419 71.6768C189.142 72.3873 189.956 72.92 190.679 73.2753C191.402 73.6303 192.396 73.8969 193.481 73.8969C194.837 73.8969 195.922 73.5416 196.826 72.92C197.73 72.2984 198.182 71.3218 198.182 70.1674V67.8587C197.639 68.6578 196.916 69.3683 195.831 69.9011C194.747 70.4338 193.481 70.7002 192.035 70.7002C190.589 70.7002 189.142 70.3449 187.877 69.5458C186.611 68.8356 185.617 67.7699 184.803 66.438C184.08 65.1061 183.628 63.6854 183.628 62.0871C183.628 60.4887 183.99 58.9792 184.803 57.6473C185.617 56.3154 186.611 55.2499 187.967 54.4507C189.233 53.6516 190.589 53.2964 192.035 53.2964C193.391 53.2964 194.566 53.474 195.651 53.8291C196.736 54.1843 197.549 54.7171 198.091 55.3387L198.634 54.0955H203.515ZM198.182 64.0406V60.0448C197.82 59.2456 197.278 58.6241 196.464 58.1801C195.651 57.7361 194.747 57.4697 193.662 57.4697C192.396 57.4697 191.312 57.9137 190.408 58.7128C189.504 59.512 189.052 60.5775 189.052 61.9094C189.052 63.1526 189.504 64.307 190.408 65.195C191.312 66.0828 192.396 66.5268 193.662 66.5268C195.741 66.438 197.278 65.6389 198.182 64.0406Z" fill="white"/>
<path d="M207.856 57.4716C208.67 56.1397 209.754 55.1629 211.2 54.3638C212.647 53.6534 214.274 53.2095 216.082 53.2095C217.89 53.2095 219.517 53.5646 220.963 54.3638C222.319 55.0742 223.404 56.1397 224.218 57.4716C224.941 58.8035 225.393 60.2242 225.393 61.9113C225.393 63.5984 225.031 65.0191 224.218 66.351C223.494 67.6831 222.41 68.7486 220.963 69.4588C219.607 70.1693 217.89 70.6132 216.082 70.6132C214.274 70.6132 212.647 70.2582 211.2 69.5477C209.754 68.8374 208.67 67.8606 207.856 66.5287C207.042 65.1968 206.681 63.6873 206.681 61.8226C206.681 60.313 207.042 58.8035 207.856 57.4716ZM213.099 65.1968C213.822 66.0846 214.816 66.4399 215.991 66.4399C217.167 66.4399 218.161 65.996 218.884 65.1968C219.607 64.3975 219.969 63.2434 219.969 62.0002C219.969 60.6683 219.607 59.6027 218.884 58.8035C218.161 58.0044 217.167 57.5604 215.991 57.5604C214.816 57.5604 213.912 58.0044 213.099 58.8035C212.285 59.6027 211.924 60.7569 211.924 62.0002C212.014 63.2434 212.376 64.3089 213.099 65.1968Z" fill="white"/>
<path d="M243.923 54.6283C245.008 55.5162 245.461 56.6706 245.551 58.0913V70.2563H240.218V60.0448C240.127 58.4465 239.314 57.6473 237.777 57.6473C236.602 57.6473 235.608 58.1801 234.884 59.3344C234.161 60.4887 233.8 61.9094 233.8 63.5965V70.2563H228.557V54.0955H233.348L233.709 56.6706C234.342 55.605 235.156 54.8059 236.24 54.1843C237.325 53.5628 238.591 53.2964 240.037 53.2964C241.574 53.2964 242.93 53.7403 243.923 54.6283Z" fill="white"/>
<path d="M90.9723 53.8309C90.0682 53.2981 88.8931 53.2981 87.8989 53.8309L80.8478 57.9154L76.0568 60.5792L69.0059 64.6639C68.1019 65.1966 66.9267 65.1966 65.9324 64.6639L60.3278 61.4672C59.4238 60.9344 58.791 59.9576 58.791 58.8922V52.5877C58.791 51.5222 59.3334 50.5454 60.3278 50.0127L65.842 46.9049C66.7459 46.3721 67.9211 46.3721 68.9155 46.9049L74.4297 50.0127C75.3336 50.5454 75.9664 51.5222 75.9664 52.5877V56.6723L80.7574 53.9197V49.8351C80.7574 48.7696 80.2151 47.7928 79.2207 47.26L69.0059 41.3996C68.1019 40.8668 66.9267 40.8668 65.9324 41.3996L55.5367 47.26C54.5424 47.7928 54 48.7696 54 49.8351V61.6447C54 62.7104 54.5424 63.6871 55.5367 64.2198L65.9324 70.0802C66.8363 70.6132 68.0115 70.6132 69.0059 70.0802L76.0568 66.0846L80.8478 63.3318L87.8989 59.3361C88.8027 58.8034 89.9779 58.8034 90.9723 59.3361L96.4865 62.444C97.3903 62.9768 98.0232 63.9534 98.0232 65.0189V71.3235C98.0232 72.389 97.4809 73.3658 96.4865 73.8985L90.9723 77.095C90.0682 77.628 88.8931 77.628 87.8989 77.095L82.3847 73.9872C81.4806 73.4545 80.8478 72.4778 80.8478 71.4123V67.3276L76.0568 70.0802V74.1649C76.0568 75.2304 76.5992 76.2072 77.5935 76.74L87.9892 82.6004C88.8931 83.1332 90.0682 83.1332 91.0626 82.6004L101.458 76.74C102.362 76.2072 102.995 75.2304 102.995 74.1649V62.3552C102.995 61.2897 102.453 60.3128 101.458 59.7801L90.9723 53.8309Z" fill="white"/>
</svg>
