<svg width="300" height="125" viewBox="0 0 300 125" fill="none" xmlns="http://www.w3.org/2000/svg">
<mask id="mask0_1829_4051" style="mask-type:luminance" maskUnits="userSpaceOnUse" x="56" y="34" width="188" height="56">
<path d="M243.676 34H56V90H243.676V34Z" fill="white"/>
</mask>
<g mask="url(#mask0_1829_4051)">
<path fill-rule="evenodd" clip-rule="evenodd" d="M67.2 34H100.8C106.986 34 112 39.0144 112 45.2V78.8C112 84.9856 106.986 90 100.8 90H67.2C61.0144 90 56 84.9856 56 78.8V45.2C56 39.0144 61.0144 34 67.2 34ZM97.9744 57.3645C97.9744 60.0173 96.405 61.3367 94.641 61.795C96.7522 62.42 98.28 64.1284 98.28 66.8367V71.809H90.2244V67.0868C90.2244 65.6422 89.3633 65.059 87.891 65.059H78.3355V71.809H70.28V51.92H89.4188C94.2243 51.92 97.9744 52.9479 97.9744 57.3645ZM78.3355 59.6978H88.0299C89.0855 59.6978 89.7243 59.559 89.7243 58.7257C89.7243 57.8923 89.0855 57.7534 88.0299 57.7534H78.3355V59.6978Z" fill="white"/>
<path d="M140.635 78.708L133.756 65.6947H129.694V78.708H124.108V45.7563H136.665C139.742 45.7563 142.22 46.7168 144.097 48.6378C145.974 50.5279 146.913 52.8982 146.913 55.7487C146.913 58.1035 146.251 60.1175 144.928 61.7906C143.605 63.4638 141.804 64.5792 139.527 65.1369L146.913 78.708H140.635ZM129.694 60.7682H135.649C137.342 60.7682 138.696 60.3189 139.711 59.4203C140.758 58.4908 141.281 57.2669 141.281 55.7487C141.281 54.1995 140.758 52.9756 139.711 52.0771C138.696 51.1476 137.342 50.6828 135.649 50.6828H129.694V60.7682Z" fill="white"/>
<path d="M146.816 72.5733C146.816 70.6522 147.432 69.1185 148.663 67.9721C149.924 66.7947 151.571 66.0511 153.602 65.7412L159.372 64.8582C160.48 64.7033 161.034 64.161 161.034 63.2315C161.034 62.209 160.68 61.3879 159.973 60.7683C159.265 60.1176 158.203 59.7923 156.787 59.7923C155.433 59.7923 154.356 60.1796 153.556 60.9542C152.756 61.6978 152.294 62.6738 152.171 63.8822L147.278 62.7667C147.493 60.7218 148.462 58.9867 150.186 57.5614C151.909 56.1051 154.094 55.377 156.741 55.377C160.003 55.377 162.404 56.1671 163.943 57.7473C165.512 59.3275 166.297 61.357 166.297 63.8357V75.083C166.297 76.5702 166.389 77.7786 166.574 78.7081H161.588C161.434 78.2434 161.358 77.2829 161.358 75.8266C159.88 78.2124 157.572 79.4053 154.433 79.4053C152.156 79.4053 150.309 78.7391 148.893 77.4068C147.508 76.0435 146.816 74.4323 146.816 72.5733ZM155.449 75.1759C157.11 75.1759 158.449 74.7267 159.465 73.8281C160.511 72.8986 161.034 71.3959 161.034 69.3199V68.2974L155.172 69.1805C153.171 69.5213 152.171 70.5438 152.171 72.2479C152.171 73.0535 152.463 73.7507 153.048 74.3394C153.633 74.8971 154.433 75.1759 155.449 75.1759Z" fill="white"/>
<path d="M182.08 55.9348V61.419C181.465 61.3261 180.88 61.2796 180.326 61.2796C176.294 61.2796 174.278 63.495 174.278 67.9257V78.7082H168.923V56.0742H174.14V59.6994C174.663 58.491 175.509 57.546 176.679 56.8643C177.848 56.1517 179.172 55.7954 180.649 55.7954C181.141 55.7954 181.618 55.8419 182.08 55.9348Z" fill="white"/>
<path d="M188.012 78.7083H182.703V56.0743H188.012V78.7083ZM182.888 50.5901C182.211 49.9085 181.872 49.0874 181.872 48.1269C181.872 47.1664 182.211 46.3453 182.888 45.6636C183.565 44.951 184.381 44.5947 185.335 44.5947C186.319 44.5947 187.15 44.9355 187.828 45.6172C188.505 46.2988 188.843 47.1354 188.843 48.1269C188.843 49.0874 188.505 49.9085 187.828 50.5901C187.15 51.2718 186.319 51.6126 185.335 51.6126C184.381 51.6126 183.565 51.2718 182.888 50.5901Z" fill="white"/>
<path d="M196.29 78.708H191.073V45.0591H196.336V58.8626C196.89 57.9021 197.798 57.0965 199.06 56.4459C200.322 55.7952 201.768 55.4699 203.399 55.4699C206.661 55.4699 209.2 56.5853 211.016 58.8162C212.863 61.016 213.786 63.8356 213.786 67.2749C213.786 70.7761 212.817 73.6576 210.878 75.9195C208.97 78.1503 206.415 79.2658 203.215 79.2658C200.014 79.2658 197.706 78.0729 196.29 75.6871V78.708ZM206.677 72.5732C207.815 71.2718 208.385 69.5212 208.385 67.3213C208.385 65.1215 207.831 63.4018 206.723 62.1625C205.615 60.8921 204.153 60.2569 202.337 60.2569C200.583 60.2569 199.137 60.8921 197.998 62.1625C196.859 63.4018 196.29 65.1215 196.29 67.3213C196.29 69.4902 196.859 71.2254 197.998 72.5267C199.137 73.828 200.583 74.4787 202.337 74.4787C204.122 74.4787 205.569 73.8435 206.677 72.5732Z" fill="white"/>
<path d="M220.442 78.708H215.087V45.0591H220.442V78.708Z" fill="white"/>
<path d="M227.241 64.9047H238.275C238.213 63.4794 237.705 62.2865 236.751 61.326C235.828 60.3655 234.489 59.8852 232.735 59.8852C231.135 59.8852 229.842 60.3965 228.857 61.4189C227.872 62.4104 227.334 63.5723 227.241 64.9047ZM238.875 70.8072L243.399 72.2479C242.752 74.3239 241.537 76.0435 239.752 77.4068C237.998 78.7391 235.828 79.4053 233.243 79.4053C230.042 79.4053 227.318 78.3054 225.072 76.1055C222.856 73.9056 221.748 70.9621 221.748 67.275C221.748 63.8047 222.825 60.9542 224.979 58.7233C227.165 56.4924 229.734 55.377 232.689 55.377C236.136 55.377 238.828 56.446 240.767 58.5839C242.706 60.6908 243.676 63.5414 243.676 67.1355C243.676 68.096 243.63 68.6692 243.537 68.8552H227.103C227.165 70.5593 227.78 71.9691 228.949 73.0845C230.15 74.1999 231.581 74.7577 233.243 74.7577C236.136 74.7577 238.013 73.4408 238.875 70.8072Z" fill="white"/>
</g>
</svg>
