<svg width="414" height="120" viewBox="0 0 414 120" fill="none" xmlns="http://www.w3.org/2000/svg">
<g clip-path="url(#clip0_773_615)">
<rect width="414" height="120" fill="white"/>
<rect width="69" height="6" fill="black"/>
<rect width="69" height="6" transform="translate(0 6)" fill="#FF0000"/>
<rect width="69" height="6" transform="translate(0 12)" fill="black"/>
<rect width="69" height="6" transform="translate(0 18)" fill="#FF0000"/>
<rect width="69" height="6" transform="translate(0 24)" fill="black"/>
<rect width="69" height="6" transform="translate(0 30)" fill="#FF0000"/>
<rect width="69" height="6" transform="translate(0 36)" fill="black"/>
<rect width="69" height="6" transform="translate(0 42)" fill="#FF0000"/>
<rect width="69" height="6" transform="translate(0 48)" fill="black"/>
<rect width="69" height="6" transform="translate(0 54)" fill="#FF0000"/>
<rect width="69" height="6" transform="translate(0 60)" fill="black"/>
<rect width="69" height="6" transform="translate(0 66)" fill="#FF0000"/>
<rect width="69" height="6" transform="translate(0 72)" fill="black"/>
<rect width="69" height="6" transform="translate(0 78)" fill="#FF0000"/>
<rect width="69" height="6" transform="translate(0 84)" fill="black"/>
<rect width="69" height="6" transform="translate(0 90)" fill="#FF0000"/>
<rect width="69" height="6" transform="translate(0 96)" fill="black"/>
<rect width="69" height="6" transform="translate(0 102)" fill="#FF0000"/>
<rect width="69" height="6" transform="translate(0 108)" fill="black"/>
<rect width="69" height="6" transform="translate(0 114)" fill="#FF0000"/>
<rect width="69" height="17" transform="translate(69)" fill="black"/>
<rect width="69" height="17" transform="translate(69 17)" fill="#FF0000"/>
<rect width="69" height="17" transform="translate(69 34)" fill="black"/>
<rect width="69" height="18" transform="translate(69 51)" fill="#FF0000"/>
<rect width="69" height="17" transform="translate(69 69)" fill="black"/>
<rect width="69" height="17" transform="translate(69 86)" fill="#FF0000"/>
<rect width="69" height="17" transform="translate(69 103)" fill="black"/>
<rect width="69" height="4" transform="translate(138)" fill="black"/>
<rect width="69" height="4" transform="translate(138 4)" fill="#00FF00"/>
<rect width="69" height="5" transform="translate(138 8)" fill="black"/>
<rect width="69" height="4" transform="translate(138 13)" fill="#00FF00"/>
<rect width="69" height="4" transform="translate(138 17)" fill="black"/>
<rect width="69" height="5" transform="translate(138 21)" fill="#00FF00"/>
<rect width="69" height="4" transform="translate(138 26)" fill="black"/>
<rect width="69" height="4" transform="translate(138 30)" fill="#00FF00"/>
<rect width="69" height="4" transform="translate(138 34)" fill="black"/>
<rect width="69" height="4" transform="translate(138 38)" fill="#00FF00"/>
<rect width="69" height="5" transform="translate(138 42)" fill="black"/>
<rect width="69" height="4" transform="translate(138 47)" fill="#00FF00"/>
<rect width="69" height="4" transform="translate(138 51)" fill="black"/>
<rect width="69" height="6" transform="translate(138 55)" fill="#00FF00"/>
<rect width="69" height="5" transform="translate(138 61)" fill="black"/>
<rect width="69" height="4" transform="translate(138 66)" fill="#00FF00"/>
<rect width="69" height="4" transform="translate(138 70)" fill="black"/>
<rect width="69" height="5" transform="translate(138 74)" fill="#00FF00"/>
<rect width="69" height="4" transform="translate(138 79)" fill="black"/>
<rect width="69" height="4" transform="translate(138 83)" fill="#00FF00"/>
<rect width="69" height="4" transform="translate(138 87)" fill="black"/>
<rect width="69" height="4" transform="translate(138 91)" fill="#00FF00"/>
<rect width="69" height="5" transform="translate(138 95)" fill="black"/>
<rect width="69" height="4" transform="translate(138 100)" fill="#00FF00"/>
<rect width="69" height="4" transform="translate(138 104)" fill="black"/>
<rect width="69" height="4" transform="translate(138 108)" fill="#00FF00"/>
<rect width="69" height="4" transform="translate(138 112)" fill="black"/>
<rect width="69" height="4" transform="translate(138 116)" fill="#00FF00"/>
<rect width="69" height="40" transform="translate(207)" fill="#00FF00"/>
<rect width="69" height="40" transform="translate(207 40)" fill="black"/>
<rect width="69" height="40" transform="translate(207 80)" fill="#00FF00"/>
<rect width="69" height="15" transform="translate(276)" fill="#0000FF"/>
<rect width="69" height="15" transform="translate(276 15)" fill="black"/>
<rect width="69" height="15" transform="translate(276 30)" fill="#0000FF"/>
<rect width="69" height="15" transform="translate(276 45)" fill="black"/>
<rect width="69" height="15" transform="translate(276 60)" fill="#0000FF"/>
<rect width="69" height="15" transform="translate(276 75)" fill="black"/>
<rect width="69" height="15" transform="translate(276 90)" fill="#0000FF"/>
<rect width="69" height="15" transform="translate(276 105)" fill="black"/>
<rect width="69" height="30" transform="translate(345)" fill="#0000FF"/>
<rect width="69" height="30" transform="translate(345 30)" fill="black"/>
<rect width="69" height="30" transform="translate(345 60)" fill="#0000FF"/>
<rect width="69" height="30" transform="translate(345 90)" fill="black"/>
</g>
<defs>
<clipPath id="clip0_773_615">
<rect width="414" height="120" fill="white"/>
</clipPath>
</defs>
</svg>
