<svg width="414" height="120" viewBox="0 0 414 120" fill="none" xmlns="http://www.w3.org/2000/svg">
<g clip-path="url(#clip0_782_3165)">
<rect width="414" height="120" fill="black"/>
<rect x="198.845" y="60.2471" width="70.0618" height="2.80247" transform="rotate(-90 198.845 60.2471)" fill="#FF0000"/>
<rect x="201.647" y="60.2471" width="70.0618" height="2.80247" transform="rotate(90 201.647 60.2471)" fill="#FF0000"/>
<rect x="198.9" y="59.8571" width="70.0618" height="2.80247" transform="rotate(-73.8496 198.9 59.8571)" fill="#00FF00"/>
<rect x="201.592" y="60.6371" width="70.0618" height="2.80247" transform="rotate(106.15 201.592 60.6371)" fill="#00FF00"/>
<rect x="229.489" y="-4.17102" width="70.0618" height="11.2099" transform="rotate(-57.615 229.489 -4.17102)" fill="#0000FF"/>
<rect x="199.063" y="59.4969" width="70.0618" height="2.80247" transform="rotate(-57.615 199.063 59.4969)" fill="#0000FF"/>
<rect x="171.004" y="124.666" width="70.0618" height="11.2099" transform="rotate(122.385 171.004 124.666)" fill="#0000FF"/>
<rect x="201.429" y="60.9977" width="70.0618" height="2.80247" transform="rotate(122.385 201.429 60.9977)" fill="#0000FF"/>
<rect x="246.315" y="6.55823" width="70.0618" height="11.2099" transform="rotate(-41.3989 246.315 6.55823)" fill="white"/>
<rect x="199.32" y="59.1967" width="70.0618" height="2.80247" transform="rotate(-41.3989 199.32 59.1967)" fill="white"/>
<rect x="154.177" y="113.937" width="70.0618" height="11.2099" transform="rotate(138.601 154.177 113.937)" fill="white"/>
<rect x="201.173" y="61.2983" width="70.0618" height="2.80247" transform="rotate(138.601 201.173 61.2983)" fill="white"/>
<rect x="327.318" y="1.1759" width="70.0618" height="26.6235" transform="rotate(-25.5051 327.318 1.1759)" fill="#FF0000"/>
<rect x="259.257" y="21.2266" width="70.0618" height="11.2099" transform="rotate(-25.5051 259.257 21.2266)" fill="#FF0000"/>
<rect x="199.643" y="58.9827" width="70.0618" height="2.80247" transform="rotate(-25.5051 199.643 58.9827)" fill="#FF0000"/>
<rect x="73.1746" y="119.319" width="70.0618" height="26.6235" transform="rotate(154.495 73.1746 119.319)" fill="#FF0000"/>
<rect x="141.235" y="99.2678" width="70.0618" height="11.2099" transform="rotate(154.495 141.235 99.2678)" fill="#FF0000"/>
<rect x="200.849" y="61.5118" width="70.0618" height="2.80247" transform="rotate(154.495 200.849 61.5118)" fill="#FF0000"/>
<rect x="403.061" y="-1.63647" width="70.0618" height="56.0494" transform="rotate(-9.37356 403.061 -1.63647)" fill="#00FF00"/>
<rect x="338.727" y="38.8077" width="70.0618" height="26.6235" transform="rotate(-9.37356 338.727 38.8077)" fill="#00FF00"/>
<rect x="267.775" y="39.1584" width="70.0618" height="11.2099" transform="rotate(-9.37356 267.775 39.1584)" fill="#00FF00"/>
<rect x="200.018" y="58.8646" width="70.0618" height="2.80247" transform="rotate(-9.37356 200.018 58.8646)" fill="#00FF00"/>
<rect x="61.7654" y="81.6865" width="70.0618" height="26.6235" transform="rotate(170.626 61.7654 81.6865)" fill="#00FF00"/>
<rect x="132.717" y="81.3358" width="70.0618" height="11.2099" transform="rotate(170.626 132.717 81.3358)" fill="#00FF00"/>
<rect x="200.474" y="61.6296" width="70.0618" height="2.80247" transform="rotate(170.626 200.474 61.6296)" fill="#00FF00"/>
<rect x="412.267" y="57.0356" width="70.0618" height="56.0494" transform="rotate(6.72674 412.267 57.0356)" fill="#0000FF"/>
<rect x="339.241" y="78.0525" width="70.0618" height="26.6235" transform="rotate(6.72674 339.241 78.0525)" fill="#0000FF"/>
<rect x="270.974" y="58.7134" width="70.0618" height="11.2099" transform="rotate(6.72674 270.974 58.7134)" fill="#0000FF"/>
<rect x="200.41" y="58.856" width="70.0618" height="2.80247" transform="rotate(6.72674 200.41 58.856)" fill="#0000FF"/>
<rect x="61.2512" y="42.4427" width="70.0618" height="26.6235" transform="rotate(-173.273 61.2512 42.4427)" fill="#0000FF"/>
<rect x="129.518" y="61.782" width="70.0618" height="11.2099" transform="rotate(-173.273 129.518 61.782)" fill="#0000FF"/>
<rect x="200.082" y="61.6393" width="70.0618" height="2.80247" transform="rotate(-173.273 200.082 61.6393)" fill="#0000FF"/>
<rect x="404.561" y="116.981" width="70.0618" height="56.0494" transform="rotate(23.1134 404.561 116.981)" fill="white"/>
<rect x="328.572" y="116.542" width="70.0618" height="26.6235" transform="rotate(23.1134 328.572 116.542)" fill="white"/>
<rect x="268.534" y="78.7288" width="70.0618" height="11.2099" transform="rotate(23.1134 268.534 78.7288)" fill="white"/>
<rect x="200.796" y="58.9585" width="70.0618" height="2.80247" transform="rotate(23.1134 200.796 58.9585)" fill="white"/>
<rect x="-4.06873" y="3.51379" width="70.0618" height="56.0494" transform="rotate(-156.887 -4.06873 3.51379)" fill="white"/>
<rect x="71.9203" y="3.95276" width="70.0618" height="26.6235" transform="rotate(-156.887 71.9203 3.95276)" fill="white"/>
<rect x="131.958" y="41.7659" width="70.0618" height="11.2099" transform="rotate(-156.887 131.958 41.7659)" fill="white"/>
<rect x="199.696" y="61.5361" width="70.0618" height="2.80247" transform="rotate(-156.887 199.696 61.5361)" fill="white"/>
<rect x="260.385" y="97.5054" width="70.0618" height="11.2099" transform="rotate(39.7494 260.385 97.5054)" fill="#FF0000"/>
<rect x="201.142" y="59.1698" width="70.0618" height="2.80247" transform="rotate(39.7494 201.142 59.1698)" fill="#FF0000"/>
<rect x="140.107" y="22.989" width="70.0618" height="11.2099" transform="rotate(-140.251 140.107 22.989)" fill="#FF0000"/>
<rect x="199.35" y="61.3246" width="70.0618" height="2.80247" transform="rotate(-140.251 199.35 61.3246)" fill="#FF0000"/>
<rect x="247.237" y="113.131" width="70.0618" height="11.2099" transform="rotate(56.3468 247.237 113.131)" fill="#00FF00"/>
<rect x="201.413" y="59.47" width="70.0618" height="2.80247" transform="rotate(56.3468 201.413 59.47)" fill="#00FF00"/>
<rect x="153.255" y="7.36279" width="70.0618" height="11.2099" transform="rotate(-123.653 153.255 7.36279)" fill="#00FF00"/>
<rect x="199.08" y="61.0237" width="70.0618" height="2.80247" transform="rotate(-123.653 199.08 61.0237)" fill="#00FF00"/>
<rect x="201.592" y="59.8578" width="70.0618" height="2.80247" transform="rotate(73.8655 201.592 59.8578)" fill="#0000FF"/>
<rect x="198.9" y="60.6364" width="70.0618" height="2.80247" transform="rotate(-106.135 198.9 60.6364)" fill="#0000FF"/>
</g>
<defs>
<clipPath id="clip0_782_3165">
<rect width="414" height="120" fill="white"/>
</clipPath>
</defs>
</svg>
