<svg width="414" height="120" viewBox="0 0 414 120" fill="none" xmlns="http://www.w3.org/2000/svg">
<rect width="50" height="60" fill="#FF0000"/>
<rect x="50" width="45" height="60" fill="black"/>
<rect x="95" width="30" height="60" fill="#FF0000"/>
<rect x="125" width="26" height="60" fill="black"/>
<rect x="151" width="21" height="60" fill="#FF0000"/>
<rect x="172" width="15" height="60" fill="black"/>
<rect x="187" width="11" height="60" fill="#FF0000"/>
<rect x="204" y="60" width="6.00001" height="60" transform="rotate(-180 204 60)" fill="black"/>
<rect x="204" width="3.00001" height="60" fill="#FF0000"/>
<rect width="50" height="60" transform="matrix(-1 0 0 1 414 0)" fill="black"/>
<rect width="46" height="60" transform="matrix(-1 0 0 1 364 0)" fill="#00FF00"/>
<rect width="30" height="60" transform="matrix(-1 0 0 1 318 0)" fill="black"/>
<rect width="25" height="60" transform="matrix(-1 0 0 1 288 0)" fill="#00FF00"/>
<rect width="21" height="60" transform="matrix(-1 0 0 1 263 0)" fill="black"/>
<rect width="16" height="60" transform="matrix(-1 0 0 1 242 0)" fill="#00FF00"/>
<rect width="11" height="60" transform="matrix(-1 0 0 1 226 0)" fill="black"/>
<rect width="6.00001" height="60" transform="matrix(1 -8.74228e-08 -8.74228e-08 -1 209 60)" fill="#00FF00"/>
<rect width="3.00001" height="60" transform="matrix(-1 1.74846e-07 1.74846e-07 1 209 0)" fill="black"/>
<rect y="60" width="50" height="60" fill="black"/>
<rect x="50" y="60" width="45" height="60" fill="#0000FF"/>
<rect x="95" y="60" width="30" height="60" fill="black"/>
<rect x="125" y="60" width="26" height="60" fill="#0000FF"/>
<rect x="151" y="60" width="21" height="60" fill="black"/>
<rect x="172" y="60" width="15" height="60" fill="#0000FF"/>
<rect x="187" y="60" width="11" height="60" fill="black"/>
<rect x="204" y="120" width="6.00001" height="60" transform="rotate(-180 204 120)" fill="#0000FF"/>
<rect x="204" y="60" width="3.00001" height="60" fill="black"/>
<rect width="49.68" height="60" transform="matrix(-1 0 0 1 414 60)" fill="white"/>
<rect width="45.54" height="60" transform="matrix(-1 0 0 1 364.32 60)" fill="black"/>
<rect width="30.015" height="60" transform="matrix(-1 0 0 1 318.78 60)" fill="white"/>
<rect width="25.875" height="60" transform="matrix(-1 0 0 1 288.765 60)" fill="black"/>
<rect width="20.7" height="60" transform="matrix(-1 0 0 1 262.89 60)" fill="white"/>
<rect width="15.525" height="60" transform="matrix(-1 0 0 1 242.19 60)" fill="black"/>
<rect width="10.35" height="60" transform="matrix(-1 0 0 1 226.665 60)" fill="white"/>
<rect width="6.21001" height="60" transform="matrix(1 -8.74228e-08 -8.74228e-08 -1 210.105 120)" fill="black"/>
<rect width="3.10501" height="60" transform="matrix(-1 1.75456e-07 1.74238e-07 1 210.105 60)" fill="white"/>
</svg>
