<svg fill="none" height="1000" viewBox="0 0 1000 1000" width="1000" xmlns="http://www.w3.org/2000/svg"><path d="m0 0h1000v1000h-1000z" fill="none"/><g transform="translate(250 350)"><path d="m0 0h100v100h-100z" fill="#0057b8"/><path d="m0 0h40v40h-40z" fill="#fff"/><path d="m120 0h100v100h-100z" fill="#00b100"/><path d="m120 30h100v40h-100z" fill="#fff"/><path d="m240 0h100l-50 100z" fill="#f00"/><path d="m360 0h100v100h-100z" fill="#fff"/><path d="m480 0h100v100h-100z" fill="#0057b8"/><g fill="#00b100"><path d="m500 0h20v100h-20z"/><path d="m540 0h20v100h-20z"/></g></g><path d="m770 420 15 30h35l-28 20 13 30-35-20-35 20 13-30-28-20h35z" fill="#fff"/></svg>