<svg fill="none" height="1080" viewBox="0 0 1080 1080" width="1080" xmlns="http://www.w3.org/2000/svg" xmlns:xlink="http://www.w3.org/1999/xlink"><clipPath id="a"><path d="m0 0h1080v1080h-1080z" transform="matrix(0 -1 1 0 0 1080)"/></clipPath><g clip-path="url(#a)"><path d="m0 0h1080v1080h-1080z" fill="#fff" transform="matrix(0 -1 1 0 0 1080)"/><path d="m0 540h540v540h-540z" fill="#0f0" transform="matrix(0 -1 1 0 -540 540)"/><path d="m1080 540h540v540h-540z" fill="#0f0" transform="matrix(0 1 -1 0 1620 -540)"/><g fill="#000"><path d="m540 540h540v540h-540z" transform="matrix(0 -1 1 0 0 1080)"/><path d="m540 540h540v540h-540z" transform="matrix(0 1 -1 0 1080 0)"/></g></g></svg>