<svg width="1080" height="1080" viewBox="0 0 1080 1080" fill="none" xmlns="http://www.w3.org/2000/svg">
<g clip-path="url(#clip0_199_20662)">
<rect width="1080" height="1080" transform="translate(0 1080) rotate(-90)" fill="white"/>
<rect y="270" width="270" height="270" transform="rotate(-90 0 270)" fill="#0000FF"/>
<rect y="810" width="270" height="270" transform="rotate(-90 0 810)" fill="#0000FF"/>
<rect x="540" y="270" width="270" height="270" transform="rotate(-90 540 270)" fill="#0000FF"/>
<rect x="540" y="810" width="270" height="270" transform="rotate(-90 540 810)" fill="#0000FF"/>
<rect x="540" y="270" width="270" height="270" transform="rotate(90 540 270)" fill="#0000FF"/>
<rect x="540" y="810" width="270" height="270" transform="rotate(90 540 810)" fill="#0000FF"/>
<rect x="1080" y="270" width="270" height="270" transform="rotate(90 1080 270)" fill="#0000FF"/>
<rect x="1080" y="810" width="270" height="270" transform="rotate(90 1080 810)" fill="#0000FF"/>
<rect x="270" y="270" width="270" height="270" transform="rotate(-90 270 270)" fill="white"/>
<rect x="270" y="810" width="270" height="270" transform="rotate(-90 270 810)" fill="white"/>
<rect x="810" y="270" width="270" height="270" transform="rotate(-90 810 270)" fill="white"/>
<rect x="810" y="810" width="270" height="270" transform="rotate(-90 810 810)" fill="white"/>
<rect x="270" y="270" width="270" height="270" transform="rotate(90 270 270)" fill="white"/>
<rect x="270" y="810" width="270" height="270" transform="rotate(90 270 810)" fill="white"/>
<rect x="810" y="270" width="270" height="270" transform="rotate(90 810 270)" fill="white"/>
<rect x="810" y="810" width="270" height="270" transform="rotate(90 810 810)" fill="white"/>
</g>
<defs>
<clipPath id="clip0_199_20662">
<rect width="1080" height="1080" fill="white" transform="translate(0 1080) rotate(-90)"/>
</clipPath>
</defs>
</svg>
