<svg fill="none" height="1080" viewBox="0 0 1080 1080" width="1080" xmlns="http://www.w3.org/2000/svg" xmlns:xlink="http://www.w3.org/1999/xlink"><clipPath id="a"><path d="m0 0h1080v1080h-1080z" transform="matrix(0 -1 1 0 0 1080)"/></clipPath><g clip-path="url(#a)"><path d="m0 0h1080v1080h-1080z" fill="#fff" transform="matrix(0 -1 1 0 0 1080)"/><path d="m0 270h270v270h-270z" fill="#00f" transform="matrix(0 -1 1 0 -270 270)"/><path d="m0 810h270v270h-270z" fill="#00f" transform="matrix(0 -1 1 0 -810 810)"/><path d="m540 270h270v270h-270z" fill="#00f" transform="matrix(0 -1 1 0 270 810)"/><path d="m540 810h270v270h-270z" fill="#00f" transform="matrix(0 -1 1 0 -270 1350)"/><path d="m540 270h270v270h-270z" fill="#00f" transform="matrix(0 1 -1 0 810 -270)"/><path d="m540 810h270v270h-270z" fill="#00f" transform="matrix(0 1 -1 0 1350 270)"/><path d="m1080 270h270v270h-270z" fill="#00f" transform="matrix(0 1 -1 0 1350 -810)"/><path d="m1080 810h270v270h-270z" fill="#00f" transform="matrix(0 1 -1 0 1890 -270)"/><g fill="#fff"><path d="m270 270h270v270h-270z" transform="matrix(0 -1 1 0 0 540)"/><path d="m270 810h270v270h-270z" transform="matrix(0 -1 1 0 -540 1080)"/><path d="m810 270h270v270h-270z" transform="matrix(0 -1 1 0 540 1080)"/><path d="m810 810h270v270h-270z" transform="matrix(0 -1 1 0 0 1620)"/><path d="m270 270h270v270h-270z" transform="matrix(0 1 -1 0 540 0)"/><path d="m270 810h270v270h-270z" transform="matrix(0 1 -1 0 1080 540)"/><path d="m810 270h270v270h-270z" transform="matrix(0 1 -1 0 1080 -540)"/><path d="m810 810h270v270h-270z" transform="matrix(0 1 -1 0 1620 0)"/></g></g></svg>