<svg fill="none" height="1080" viewBox="0 0 1080 1080" width="1080" xmlns="http://www.w3.org/2000/svg" xmlns:xlink="http://www.w3.org/1999/xlink"><clipPath id="a"><path d="m0 0h1080v1080h-1080z" transform="matrix(0 1 -1 0 1080 0)"/></clipPath><g clip-path="url(#a)"><path d="m0 0h1080v1080h-1080z" fill="#fff" transform="matrix(0 1 -1 0 1080 0)"/><path d="m1080 0h1080v180h-1080z" fill="#00f" transform="matrix(0 1 -1 0 1080 -1080)"/><path d="m360 360h360v360h-360z" fill="#f00"/><g fill="#00f"><path d="m180 0h1080v180h-1080z" transform="matrix(0 1 -1 0 180 -180)"/><path d="m0 0h1080v180h-1080z"/><path d="m0 900h1080v180h-1080z"/></g></g></svg>